<?xml version="1.0" encoding="utf-8"?>
<!-- Generator: Adobe Illustrator 19.0.0, SVG Export Plug-In . SVG Version: 6.00 Build 0)  -->
<svg version="1.0" id="Layer_1" xmlns="http://www.w3.org/2000/svg" xmlns:xlink="http://www.w3.org/1999/xlink" x="0px" y="0px"
	 viewBox="0 0 182 47" style="enable-background:new 0 0 182 47;" xml:space="preserve">
<style type="text/css">
	.st0{fill:#EF3853;}
	.st1{fill:#163056;}
	.st2{fill-rule:evenodd;clip-rule:evenodd;fill:none;}
	.st3{fill-rule:evenodd;clip-rule:evenodd;fill:#163056;}
	.st4{fill-rule:evenodd;clip-rule:evenodd;fill:#118DF0;}
	.st5{fill-rule:evenodd;clip-rule:evenodd;fill:#EF3853;}
</style>
<path class="st0" d="M66.3,46.2c1.9,0,2.9-1.1,2.9-2.8v-4H68v4c0,1.1-0.6,1.7-1.7,1.7c-1.1,0-1.7-0.7-1.7-1.7v-4h-1.2v4
	C63.4,45,64.4,46.2,66.3,46.2z"/>
<path class="st0" d="M77.6,46c1.3,0,1.9-0.8,1.9-1.8c0-0.8-0.6-1.5-1.3-1.6c0.6-0.1,1.2-0.7,1.2-1.5c0-0.9-0.7-1.7-1.9-1.7h-3.3V46
	H77.6z M77.3,42.1h-1.9v-1.7h1.9c0.6,0,0.9,0.4,0.9,0.9C78.2,41.8,77.9,42.1,77.3,42.1z M77.3,45h-1.9v-1.9h1.9c0.7,0,1,0.4,1,0.9
	C78.3,44.7,77.9,45,77.3,45z"/>
<path class="st0" d="M88.9,46v-1h-3.4v-1.9h3.3v-1h-3.3v-1.7h3.4v-1h-4.6V46H88.9z"/>
<path class="st0" d="M98.4,46v-1h-3.5l3.4-4.7v-0.9h-4.9v1h3.4l-3.4,4.7V46H98.4z"/>
<path class="st0" d="M104.3,46v-2.5h1.8c1.4,0,2.2-0.9,2.2-2.1c0-1.1-0.8-2.1-2.2-2.1h-2.9V46H104.3z M105.9,42.5h-1.6v-2.1h1.6
	c0.7,0,1.1,0.4,1.1,1.1C107.1,42.1,106.6,42.5,105.9,42.5z"/>
<path class="st0" d="M114,46v-6.7h-1.2V46H114z"/>
<path class="st0" d="M123.6,46v-1h-3.4v-1.9h3.3v-1h-3.3v-1.7h3.4v-1h-4.6V46H123.6z"/>
<path class="st0" d="M131.6,46.2c1.3,0,2.2-0.7,2.7-1.5l-1-0.5c-0.3,0.5-1,1-1.7,1c-1.3,0-2.3-1-2.3-2.4c0-1.4,1-2.4,2.3-2.4
	c0.7,0,1.4,0.4,1.7,1l1-0.5c-0.5-0.8-1.3-1.5-2.7-1.5c-2,0-3.5,1.4-3.5,3.4C128.1,44.8,129.7,46.2,131.6,46.2z"/>
<path class="st0" d="M143.6,46v-1h-3.5l3.4-4.7v-0.9h-4.9v1h3.4l-3.4,4.7V46H143.6z"/>
<path class="st0" d="M152.9,46v-1h-3.4v-1.9h3.3v-1h-3.3v-1.7h3.4v-1h-4.6V46H152.9z"/>
<path class="st0" d="M163.5,46v-6.7h-1.2V44l-3.4-4.6h-1.2V46h1.2v-4.8l3.5,4.8H163.5z"/>
<path class="st0" d="M169.7,46v-6.7h-1.2V46H169.7z"/>
<path class="st0" d="M180.7,46l-2.6-6.7h-1.5L174,46h1.3l0.5-1.3h3.1l0.5,1.3H180.7z M178.5,43.7h-2.4l1.2-3.2L178.5,43.7z"/>
<path class="st1" d="M12.3,13.5L7.1,6.7l4.9-6H8L4.1,6V0.7H0.8v12.7h3.3V9.8l0.9-1.1l3.3,4.8H12.3z"/>
<path class="st1" d="M35.7,13.5L30.9,0.7h-4.1L22,13.5h3.7l0.6-1.8h5l0.6,1.8H35.7z M30.5,8.8h-3.2L28.8,4L30.5,8.8z"/>
<path class="st1" d="M56.2,13.5v-2.9h-5.6l5.4-7.3V0.7h-9.8v2.9h5.4l-5.4,7.3v2.6H56.2z"/>
<path class="st1" d="M71.4,13.5V0.7h-3.3v12.7H71.4z"/>
<path class="st1" d="M98.2,13.5V0.7h-4.6L91,7.7l-2.7-6.9h-4.6v12.7H87V5.2l3.2,8.3h1.5l3.2-8.3v8.3H98.2z"/>
<path class="st1" d="M113.8,13.5V0.7h-3.3v12.7H113.8z"/>
<path class="st1" d="M135.5,13.5v-2.9h-6.1V8.5h5.9V5.6h-5.9v-2h6.1V0.7h-9.3v12.7H135.5z"/>
<path class="st1" d="M158.3,13.5l-2.6-4.7c1.2-0.4,2.5-1.6,2.5-3.8c0-2.4-1.6-4.2-4.4-4.2h-6.4v12.7h3.3V9.2h1.7l2.1,4.3H158.3z
	 M153.4,6.3h-2.6V3.6h2.6c0.9,0,1.6,0.5,1.6,1.4C154.9,5.9,154.2,6.3,153.4,6.3z"/>
<path class="st1" d="M179.6,13.5v-2.9h-5.6l5.4-7.3V0.7h-9.8v2.9h5.4l-5.4,7.3v2.6H179.6z"/>
<path class="st1" d="M4.1,31.5v-4.3h3.1c2.9,0,4.4-1.9,4.4-4.2c0-2.3-1.6-4.2-4.4-4.2H0.8v12.7H4.1z M6.7,24.3H4.1v-2.7h2.7
	c0.9,0,1.5,0.5,1.5,1.4C8.3,23.8,7.6,24.3,6.7,24.3z"/>
<path class="st1" d="M23.4,31.5V18.7h-3.3v12.7H23.4z"/>
<path class="st1" d="M42.1,31.5v-2.9h-6.1v-2.2H42v-2.9h-5.9v-2h6.1v-2.9h-9.3v12.7H42.1z"/>
<path class="st1" d="M61.9,31.5l-2.6-4.7c1.2-0.4,2.5-1.6,2.5-3.8c0-2.4-1.6-4.2-4.4-4.2h-6.4v12.7h3.3v-4.3H56l2.1,4.3H61.9z
	 M57,24.3h-2.6v-2.7H57c0.9,0,1.6,0.5,1.6,1.4C58.5,23.9,57.8,24.3,57,24.3z"/>
<path class="st1" d="M80.3,31.5v-2.9h-5.6l5.4-7.3v-2.6h-9.8v2.9h5.4l-5.4,7.3v2.6H80.3z"/>
<path class="st1" d="M95.2,31.7c3.1,0,4.7-1.8,5.6-3.4L97.9,27c-0.4,1-1.5,1.9-2.7,1.9c-2.1,0-3.6-1.6-3.6-3.7s1.5-3.7,3.6-3.7
	c1.2,0,2.3,0.8,2.7,1.9l2.8-1.3c-0.8-1.7-2.5-3.4-5.6-3.4c-3.9,0-6.9,2.7-6.9,6.6C88.3,29,91.3,31.7,95.2,31.7z"/>
<path class="st1" d="M121.1,31.5V18.7h-3.3v4.8h-5.3v-4.8h-3.3v12.7h3.3v-5.1h5.3v5.1H121.1z"/>
<path class="st1" d="M142.8,31.5L138,18.7h-4.1l-4.8,12.7h3.7l0.6-1.8h5l0.6,1.8H142.8z M137.6,26.8h-3.2L136,22L137.6,26.8z"/>
<path class="st1" d="M149.8,28.1l1.2-0.7v4.1h8.4v-2.9h-5.1v-3.1l1.3-0.7v-2.7l-1.3,0.7v-4.1H151v6l-1.2,0.7V28.1z"/>
<path class="st1" d="M180.6,31.5l-4.8-12.7h-4.1l-4.8,12.7h3.7l0.6-1.8h5l0.6,1.8H180.6z M175.3,26.8h-3.2l1.6-4.8L175.3,26.8z"/>
<path class="st2" d="M542.3,435.5h8.7v9h-8.7V435.5z"/>
<path class="st2" d="M542.3,435.5h8.7v9h-8.7V435.5z"/>
<path class="st3" d="M36.8,37.6h8.7v9h-8.7V37.6z"/>
<path class="st4" d="M18.1,37.6h8.7v9h-8.7V37.6z"/>
<path class="st5" d="M0.1,37.6h8.7v9H0.1V37.6z"/>
</svg>
