<svg version="1" id="Layer_1" xmlns="http://www.w3.org/2000/svg" viewBox="0 0 182 47"><style>.st0{fill:#ef3853}.st1{fill:#163056}.st2{fill:none}.st2,.st3,.st4,.st5{fill-rule:evenodd;clip-rule:evenodd}.st3{fill:#163056}.st4{fill:#118df0}.st5{fill:#ef3853}</style><path class="st0" d="M66.3 46.2c1.9 0 2.9-1.1 2.9-2.8v-4H68v4c0 1.1-.6 1.7-1.7 1.7s-1.7-.7-1.7-1.7v-4h-1.2v4c0 1.6 1 2.8 2.9 2.8zm11.3-.2c1.3 0 1.9-.8 1.9-1.8 0-.8-.6-1.5-1.3-1.6.6-.1 1.2-.7 1.2-1.5 0-.9-.7-1.7-1.9-1.7h-3.3V46h3.4zm-.3-3.9h-1.9v-1.7h1.9c.6 0 .9.4.9.9s-.3.8-.9.8zm0 2.9h-1.9v-1.9h1.9c.7 0 1 .4 1 .9 0 .7-.4 1-1 1zm11.6 1v-1h-3.4v-1.9h3.3v-1h-3.3v-1.7h3.4v-1h-4.6V46h4.6zm9.5 0v-1h-3.5l3.4-4.7v-.9h-4.9v1h3.4l-3.4 4.7v.9h5zm5.9 0v-2.5h1.8c1.4 0 2.2-.9 2.2-2.1 0-1.1-.8-2.1-2.2-2.1h-2.9V46h1.1zm1.6-3.5h-1.6v-2.1h1.6c.7 0 1.1.4 1.1 1.1.1.6-.4 1-1.1 1zM114 46v-6.7h-1.2V46h1.2zm9.6 0v-1h-3.4v-1.9h3.3v-1h-3.3v-1.7h3.4v-1H119V46h4.6zm8 .2c1.3 0 2.2-.7 2.7-1.5l-1-.5c-.3.5-1 1-1.7 1-1.3 0-2.3-1-2.3-2.4s1-2.4 2.3-2.4c.7 0 1.4.4 1.7 1l1-.5c-.5-.8-1.3-1.5-2.7-1.5-2 0-3.5 1.4-3.5 3.4s1.6 3.4 3.5 3.4zm12-.2v-1h-3.5l3.4-4.7v-.9h-4.9v1h3.4l-3.4 4.7v.9h5zm9.3 0v-1h-3.4v-1.9h3.3v-1h-3.3v-1.7h3.4v-1h-4.6V46h4.6zm10.6 0v-6.7h-1.2V44l-3.4-4.6h-1.2V46h1.2v-4.8l3.5 4.8h1.1zm6.2 0v-6.7h-1.2V46h1.2zm11 0l-2.6-6.7h-1.5L174 46h1.3l.5-1.3h3.1l.5 1.3h1.3zm-2.2-2.3h-2.4l1.2-3.2 1.2 3.2z"/><path class="st1" d="M12.3 13.5L7.1 6.7l4.9-6H8L4.1 6V.7H.8v12.7h3.3V9.8L5 8.7l3.3 4.8h4zm23.4 0L30.9.7h-4.1L22 13.5h3.7l.6-1.8h5l.6 1.8h3.8zm-5.2-4.7h-3.2L28.8 4l1.7 4.8zm25.7 4.7v-2.9h-5.6L56 3.3V.7h-9.8v2.9h5.4l-5.4 7.3v2.6h10zm15.2 0V.7h-3.3v12.7h3.3zm26.8 0V.7h-4.6l-2.6 7L88.3.8h-4.6v12.7H87V5.2l3.2 8.3h1.5l3.2-8.3v8.3h3.3zm15.6 0V.7h-3.3v12.7h3.3zm21.7 0v-2.9h-6.1V8.5h5.9V5.6h-5.9v-2h6.1V.7h-9.3v12.7h9.3zm22.8 0l-2.6-4.7c1.2-.4 2.5-1.6 2.5-3.8 0-2.4-1.6-4.2-4.4-4.2h-6.4v12.7h3.3V9.2h1.7l2.1 4.3h3.8zm-4.9-7.2h-2.6V3.6h2.6c.9 0 1.6.5 1.6 1.4-.1.9-.8 1.3-1.6 1.3zm26.2 7.2v-2.9H174l5.4-7.3V.7h-9.8v2.9h5.4l-5.4 7.3v2.6h10zM4.1 31.5v-4.3h3.1c2.9 0 4.4-1.9 4.4-4.2 0-2.3-1.6-4.2-4.4-4.2H.8v12.7h3.3zm2.6-7.2H4.1v-2.7h2.7c.9 0 1.5.5 1.5 1.4 0 .8-.7 1.3-1.6 1.3zm16.7 7.2V18.7h-3.3v12.7h3.3zm18.7 0v-2.9H36v-2.2h6v-2.9h-5.9v-2h6.1v-2.9h-9.3v12.7h9.2zm19.8 0l-2.6-4.7c1.2-.4 2.5-1.6 2.5-3.8 0-2.4-1.6-4.2-4.4-4.2H51v12.7h3.3v-4.3H56l2.1 4.3h3.8zM57 24.3h-2.6v-2.7H57c.9 0 1.6.5 1.6 1.4-.1.9-.8 1.3-1.6 1.3zm23.3 7.2v-2.9h-5.6l5.4-7.3v-2.6h-9.8v2.9h5.4l-5.4 7.3v2.6h10zm14.9.2c3.1 0 4.7-1.8 5.6-3.4L97.9 27c-.4 1-1.5 1.9-2.7 1.9-2.1 0-3.6-1.6-3.6-3.7s1.5-3.7 3.6-3.7c1.2 0 2.3.8 2.7 1.9l2.8-1.3c-.8-1.7-2.5-3.4-5.6-3.4-3.9 0-6.9 2.7-6.9 6.6.1 3.7 3.1 6.4 7 6.4zm25.9-.2V18.7h-3.3v4.8h-5.3v-4.8h-3.3v12.7h3.3v-5.1h5.3v5.1h3.3zm21.7 0L138 18.7h-4.1l-4.8 12.7h3.7l.6-1.8h5l.6 1.8h3.8zm-5.2-4.7h-3.2L136 22l1.6 4.8zm12.2 1.3l1.2-.7v4.1h8.4v-2.9h-5.1v-3.1l1.3-.7v-2.7l-1.3.7v-4.1H151v6l-1.2.7v2.7zm30.8 3.4l-4.8-12.7h-4.1l-4.8 12.7h3.7l.6-1.8h5l.6 1.8h3.8zm-5.3-4.7h-3.2l1.6-4.8 1.6 4.8z"/><path class="st2" d="M542.3 435.5h8.7v9h-8.7v-9z"/><path class="st2" d="M542.3 435.5h8.7v9h-8.7v-9z"/><path class="st3" d="M36.8 37.6h8.7v9h-8.7v-9z"/><path class="st4" d="M18.1 37.6h8.7v9h-8.7v-9z"/><path class="st5" d="M.1 37.6h8.7v9H.1v-9z"/></svg>